<?xml version="1.0" encoding="UTF-8" standalone="no"?>
<!DOCTYPE svg PUBLIC "-//W3C//DTD SVG 1.1//EN" "http://www.w3.org/Graphics/SVG/1.1/DTD/svg11.dtd">
<svg width="100%" height="100%" viewBox="0 0 3508 2481" version="1.1"  xmlns="http://www.w3.org/2000/svg" xmlns:xlink="http://www.w3.org/1999/xlink" xml:space="preserve" xmlns:serif="http://www.serif.com/" style="fill-rule:evenodd;clip-rule:evenodd;stroke-linejoin:round;stroke-miterlimit:2;">
    <g transform="matrix(1.36365,0,0,1.36365,-602.932,-219.321)">
        <g transform="matrix(0.596054,0,0,0.596054,161.52,241.782)">
            <path d="M798.56,447.697L798.56,2101.83L4726.55,2101.83L4726.55,2332.22L530.795,2332.22L530.795,447.697L798.56,447.697Z" style="fill-rule:nonzero;"/>
        </g>
        <g transform="matrix(0.596054,0,0,0.596054,-237.127,151.358)">
            <path d="M2497.66,1471.54C2577.64,1571.81 2617.64,1690.33 2617.64,1827.11C2617.64,1966.21 2577.64,2085.17 2497.66,2183.99C2417.68,2282.81 2296.26,2332.22 2133.4,2332.22C1970.54,2332.22 1849.12,2282.81 1769.13,2183.99C1689.15,2085.17 1649.16,1966.21 1649.16,1827.11C1649.16,1690.33 1689.15,1571.81 1769.13,1471.54C1849.12,1371.28 1970.54,1321.14 2133.4,1321.14C2296.26,1321.14 2417.68,1371.28 2497.66,1471.54ZM2299.45,1607.16C2260.62,1556.16 2204.98,1530.66 2132.53,1530.66C2060.08,1530.66 2004.3,1556.31 1965.18,1607.6C1926.06,1658.89 1906.5,1732.06 1906.5,1827.11C1906.5,1922.16 1926.06,1995.48 1965.18,2047.06C2004.3,2098.65 2060.08,2124.44 2132.53,2124.44C2204.98,2124.44 2260.62,2098.65 2299.45,2047.06C2338.28,1995.48 2357.7,1922.16 2357.7,1827.11C2357.7,1732.06 2338.28,1658.75 2299.45,1607.16Z" style="fill-rule:nonzero;"/>
        </g>
        <g transform="matrix(0.596054,0,0,0.596054,-308.119,151.358)">
            <path d="M3585.24,1471.54C3665.22,1571.81 3705.21,1690.33 3705.21,1827.11C3705.21,1966.21 3665.22,2085.17 3585.24,2183.99C3505.26,2282.81 3383.84,2332.22 3220.98,2332.22C3058.12,2332.22 2936.69,2282.81 2856.71,2183.99C2776.73,2085.17 2736.74,1966.21 2736.74,1827.11C2736.74,1690.33 2776.73,1571.81 2856.71,1471.54C2936.69,1371.28 3058.12,1321.14 3220.98,1321.14C3383.84,1321.14 3505.26,1371.28 3585.24,1471.54ZM3387.03,1607.16C3348.19,1556.16 3292.55,1530.66 3220.11,1530.66C3147.66,1530.66 3091.88,1556.31 3052.75,1607.6C3013.63,1658.89 2994.07,1732.06 2994.07,1827.11C2994.07,1922.16 3013.63,1995.48 3052.75,2047.06C3091.88,2098.65 3147.66,2124.44 3220.11,2124.44C3292.55,2124.44 3348.19,2098.65 3387.03,2047.06C3425.86,1995.48 3445.27,1922.16 3445.27,1827.11C3445.27,1732.06 3425.86,1658.75 3387.03,1607.16Z" style="fill-rule:nonzero;"/>
        </g>
        <g transform="matrix(0.596054,0,0,0.596054,-411.239,145.658)">
            <path d="M4414.62,1612.38C4393.75,1566.59 4352.89,1543.7 4292.04,1543.7C4221.33,1543.7 4173.8,1566.59 4149.46,1612.38C4136.13,1638.46 4129.46,1677.29 4129.46,1728.88L4129.46,2299.18L3878.22,2299.18L3878.22,1353.31L4119.03,1353.31L4119.03,1491.54C4149.75,1442.28 4178.73,1407.21 4205.97,1386.35C4254.07,1349.25 4316.38,1330.71 4392.88,1330.71C4465.33,1330.71 4523.87,1346.64 4568.49,1378.52C4604.43,1408.08 4631.67,1446.04 4650.21,1492.41C4682.67,1436.77 4722.95,1395.91 4771.06,1369.83C4822.06,1343.75 4878.86,1330.71 4941.45,1330.71C4983.18,1330.71 5024.33,1338.82 5064.9,1355.05C5105.47,1371.28 5142.28,1399.68 5175.31,1440.25C5201.97,1473.28 5219.94,1513.85 5229.21,1561.96C5235.01,1593.84 5237.91,1640.49 5237.91,1701.93L5236.17,2299.18L4982.31,2299.18L4982.31,1695.84C4982.31,1659.91 4976.52,1630.35 4964.93,1607.16C4942.9,1563.12 4902.33,1541.09 4843.21,1541.09C4774.82,1541.09 4727.59,1569.49 4701.51,1626.29C4688.18,1656.43 4681.51,1692.65 4681.51,1734.96L4681.51,2299.18L4432,2299.18L4432,1734.96C4432,1678.74 4426.21,1637.88 4414.62,1612.38Z" style="fill-rule:nonzero;"/>
        </g>
    </g>
</svg>
